<svg width="49" height="48" viewBox="0 0 49 48" fill="none" xmlns="http://www.w3.org/2000/svg">
<g clip-path="url(#clip0_60_37162)">
<path d="M42.7746 31.0637C43.632 29.4673 44.3416 27.8117 44.8146 26.1266C45.9677 22.0764 45.3172 18.2035 43.5137 14.9515C41.4441 11.2561 38.2806 8.8023 33.6683 8.77273H29.8838L27.4299 13.6507L23.5567 1.70703L20.2454 8.77273H16.6679C11.4939 9.09793 8.89206 11.2561 6.82245 14.9515C5.01893 18.2035 4.36848 22.0764 5.52155 26.1266C6.58592 29.8811 8.7738 33.4583 11.1095 36.3851C12.233 37.8042 13.5043 39.0754 14.8348 40.258C15.1305 40.524 16.047 41.204 16.934 41.8248C18.2053 42.7413 19.6836 43.2143 21.1915 43.2143H21.7237C23.6159 43.2143 25.1533 41.5292 25.1533 39.4302V35.3504" fill="#3A643B"/>
<path d="M42.7746 31.0637C43.632 29.4673 44.3416 27.8117 44.8146 26.1266C45.9677 22.0764 45.3172 18.2035 43.5137 14.9515C41.4441 11.2561 38.2806 8.8023 33.6683 8.77273H29.8838L27.4299 13.6507L23.5567 1.70703L20.2454 8.77273H16.6679C11.4939 9.09793 8.89206 11.2561 6.82245 14.9515C5.01893 18.2035 4.36848 22.0764 5.52155 26.1266C6.58592 29.8811 8.7738 33.4583 11.1095 36.3851C12.233 37.8042 13.5043 39.0754 14.8348 40.258C15.1305 40.524 16.047 41.204 16.934 41.8248C18.2053 42.7413 19.6836 43.2143 21.1915 43.2143H21.7237C23.6159 43.2143 25.1533 41.5292 25.1533 39.4302V35.3504" stroke="#9DB29D" stroke-width="2.71979" stroke-linecap="round" stroke-linejoin="round"/>
<path d="M16.6726 23.9932C18.2565 23.9932 19.5405 22.7093 19.5405 21.1255C19.5405 19.5417 18.2565 18.2578 16.6726 18.2578C15.0887 18.2578 13.8047 19.5417 13.8047 21.1255C13.8047 22.7093 15.0887 23.9932 16.6726 23.9932Z" stroke="#9DB29D" stroke-width="2.71979" stroke-linecap="round" stroke-linejoin="round"/>
<path d="M33.6374 23.9932C35.2213 23.9932 36.5053 22.7093 36.5053 21.1255C36.5053 19.5417 35.2213 18.2578 33.6374 18.2578C32.0535 18.2578 30.7695 19.5417 30.7695 21.1255C30.7695 22.7093 32.0535 23.9932 33.6374 23.9932Z" stroke="#9DB29D" stroke-width="2.71979" stroke-linecap="round" stroke-linejoin="round"/>
<path d="M40.3613 38.3842C42.6147 38.3842 44.4414 36.5576 44.4414 34.3044C44.4414 32.0512 42.6147 30.2246 40.3613 30.2246C38.108 30.2246 36.2812 32.0512 36.2812 34.3044C36.2812 36.5576 38.108 38.3842 40.3613 38.3842Z" fill="#3A643B" stroke="#9DB29D" stroke-width="2.71979" stroke-linecap="round" stroke-linejoin="round"/>
<path d="M16.668 24.0234C17.2593 29.2562 19.8907 31.9169 25.1534 34.5185C30.2978 32.3308 33.1362 29.8179 33.6388 24.0234" stroke="#9DB29D" stroke-width="2.71979" stroke-linecap="round" stroke-linejoin="round"/>
</g>
<defs>
<clipPath id="clip0_60_37162">
<rect width="43.4323" height="44.4341" fill="white" transform="translate(3.45312 0.224609)"/>
</clipPath>
</defs>
</svg>
