<svg width="36" height="36" viewBox="0 0 36 36" fill="none" xmlns="http://www.w3.org/2000/svg">
<circle cx="18" cy="18" r="18" fill="#33643F"/>
<path d="M25.4544 14.921C25.446 14.2899 25.3279 13.665 25.1053 13.0744C24.9122 12.5762 24.6174 12.1237 24.2396 11.7459C23.8618 11.3681 23.4093 11.0733 22.9111 10.8802C22.328 10.6613 21.7121 10.543 21.0894 10.5302C20.2878 10.4944 20.0336 10.4844 17.9986 10.4844C15.9636 10.4844 15.7028 10.4844 14.9069 10.5302C14.2846 10.5431 13.6689 10.6614 13.0861 10.8802C12.5878 11.0731 12.1353 11.3679 11.7575 11.7457C11.3796 12.1236 11.0848 12.5761 10.8919 13.0744C10.6726 13.657 10.5545 14.2728 10.5428 14.8952C10.5069 15.6977 10.4961 15.9519 10.4961 17.9869C10.4961 20.0219 10.4961 20.2819 10.5428 21.0785C10.5553 21.7019 10.6728 22.3169 10.8919 22.901C11.0852 23.3992 11.3802 23.8515 11.7581 24.2292C12.1361 24.6068 12.5886 24.9015 13.0869 25.0944C13.6681 25.322 14.2839 25.4489 14.9078 25.4694C15.7103 25.5052 15.9644 25.516 17.9994 25.516C20.0344 25.516 20.2953 25.516 21.0911 25.4694C21.7137 25.4571 22.3297 25.339 22.9128 25.1202C23.4108 24.9269 23.8632 24.632 24.241 24.2542C24.6187 23.8765 24.9137 23.4241 25.1069 22.926C25.3261 22.3427 25.4436 21.7277 25.4561 21.1035C25.4919 20.3019 25.5028 20.0477 25.5028 18.0119C25.5011 15.9769 25.5011 15.7185 25.4544 14.921ZM17.9936 21.8352C15.8653 21.8352 14.1411 20.111 14.1411 17.9827C14.1411 15.8544 15.8653 14.1302 17.9936 14.1302C19.0153 14.1302 19.9952 14.5361 20.7177 15.2586C21.4402 15.9811 21.8461 16.961 21.8461 17.9827C21.8461 19.0045 21.4402 19.9844 20.7177 20.7068C19.9952 21.4293 19.0153 21.8352 17.9936 21.8352ZM21.9994 14.886C21.8814 14.8862 21.7646 14.863 21.6555 14.8179C21.5465 14.7728 21.4474 14.7066 21.364 14.6232C21.2805 14.5397 21.2144 14.4407 21.1693 14.3316C21.1241 14.2226 21.101 14.1057 21.1011 13.9877C21.1011 13.8698 21.1243 13.753 21.1694 13.6441C21.2146 13.5352 21.2807 13.4362 21.3641 13.3528C21.4475 13.2694 21.5465 13.2033 21.6554 13.1581C21.7643 13.113 21.8811 13.0898 21.999 13.0898C22.1169 13.0898 22.2337 13.113 22.3426 13.1581C22.4516 13.2033 22.5506 13.2694 22.6339 13.3528C22.7173 13.4362 22.7835 13.5352 22.8286 13.6441C22.8737 13.753 22.8969 13.8698 22.8969 13.9877C22.8969 14.4844 22.4953 14.886 21.9994 14.886Z" fill="#FFF8E6"/>
<path d="M17.9947 20.4855C19.3768 20.4855 20.4972 19.3651 20.4972 17.983C20.4972 16.6009 19.3768 15.4805 17.9947 15.4805C16.6126 15.4805 15.4922 16.6009 15.4922 17.983C15.4922 19.3651 16.6126 20.4855 17.9947 20.4855Z" fill="#FFF8E6"/>
</svg>
