<svg width="47" height="35" viewBox="0 0 47 35" fill="none" xmlns="http://www.w3.org/2000/svg">
<path d="M16.2227 29.3566L13.1328 30.9016L19.3125 33.219H24.7198L27.8097 31.674L30.1271 30.1291L33.9894 25.4942L34.7619 23.9493L35.5343 21.6319L36.3068 19.3145L33.9894 20.0869H30.8995H27.0372L23.1749 19.3145L19.3125 20.8594L16.9951 22.4043L16.2227 24.7218L15.4502 27.8117L16.2227 29.3566Z" fill="#3A643B"/>
<path d="M24.7188 11.59L21.6289 13.135L27.8086 15.4524H33.2159L36.3058 13.9074L38.6232 12.3625L42.4855 7.72764L43.258 6.18269L44.0304 3.86527L44.8029 1.54785L42.4855 2.32033H39.3956H35.5333L31.671 1.54785L27.8086 3.0928L25.4912 4.63775L24.7188 6.95517L23.9463 10.0451L24.7188 11.59Z" fill="#3A643B"/>
<path d="M0.773438 17.7668C2.62736 8.49712 9.27057 6.1797 12.3604 5.40723L11.588 8.49712C11.8455 8.49712 12.8239 9.26959 14.6778 12.3595C16.5318 15.4494 14.4203 18.7968 13.1329 20.0842L10.043 23.1741L7.72564 25.4915L5.40824 27.809L3.8633 30.8989C1.39141 25.955 0.773438 20.0842 0.773438 17.7668Z" fill="#3A643B"/>
<path d="M14.7537 28.6754C12.7751 29.7858 11.0952 31.3594 9.85811 33.2614C9.79818 33.3586 9.7582 33.4667 9.74051 33.5795C9.72282 33.6923 9.72777 33.8075 9.75507 33.9184C9.78237 34.0292 9.83148 34.1336 9.89953 34.2252C9.96757 34.3169 10.0532 34.3941 10.1514 34.4524C10.2496 34.5106 10.3584 34.5487 10.4715 34.5644C10.5846 34.5802 10.6997 34.5732 10.8101 34.544C10.9204 34.5148 11.0239 34.4639 11.1144 34.3943C11.2048 34.3246 11.2806 34.2377 11.3371 34.1385C11.8525 33.3063 12.488 32.5549 13.2231 31.9085C16.0435 33.6283 18.7894 34.4939 21.432 34.4939C22.799 34.4941 24.156 34.2615 25.4448 33.806C33.6882 30.9397 37.6207 19.9275 37.7812 19.4746C37.8554 19.2798 37.8607 19.0654 37.796 18.8672C37.7313 18.669 37.6006 18.4989 37.4257 18.3854C37.2644 18.2844 37.0723 18.2445 36.884 18.2729C36.6958 18.3012 36.524 18.3961 36.3996 18.5402C36.1245 18.695 33.8315 19.7727 24.9977 18.9816C21.6327 18.6778 19.0187 19.4001 17.2358 21.1198C15.453 22.8396 14.6677 25.3562 14.7537 28.6754ZM24.8372 20.73C30.4779 21.2345 33.6595 21.0109 35.4366 20.6555C34.0206 23.7626 30.4779 30.2403 24.8601 32.1952C21.7015 33.3417 18.2734 32.8487 14.6677 30.8021C18.2333 28.3027 23.4442 26.6174 27.7607 26.1473C27.8737 26.1353 27.9831 26.1011 28.0828 26.0467C28.1825 25.9924 28.2706 25.919 28.3419 25.8306C28.4132 25.7422 28.4665 25.6407 28.4985 25.5317C28.5306 25.4228 28.5409 25.3086 28.5289 25.1957C28.5168 25.0828 28.4827 24.9733 28.4283 24.8736C28.374 24.7739 28.3006 24.6859 28.2122 24.6145C28.1238 24.5432 28.0223 24.49 27.9133 24.4579C27.8044 24.4258 27.6902 24.4155 27.5773 24.4275C23.715 24.8932 19.959 26.0076 16.4677 27.7238C16.5479 25.3619 17.1957 23.5619 18.4225 22.3753C19.8327 21.0167 21.9881 20.4549 24.8372 20.73ZM18.6976 16.1784C18.8909 16.2861 19.1184 16.3146 19.3322 16.2579C19.5461 16.2012 19.7296 16.0638 19.8441 15.8745C20.3577 15.0411 20.9935 14.2894 21.7301 13.6446C24.5448 15.3643 27.2964 16.23 29.9391 16.23C31.306 16.2302 32.663 15.9975 33.9518 15.5421C42.1952 12.6414 46.122 1.66353 46.2882 1.21065C46.3625 1.01583 46.3677 0.801443 46.303 0.603235C46.2383 0.405028 46.1077 0.234985 45.9328 0.121465C45.7715 0.0204495 45.5793 -0.0194757 45.3911 0.00891476C45.2029 0.0373053 45.031 0.132136 44.9067 0.276244C44.6258 0.431024 42.3385 1.50875 33.5047 0.717652C30.134 0.413826 27.5257 1.13613 25.7372 2.8559C23.9486 4.57567 23.1862 7.0636 23.2894 10.4114C21.3108 11.5219 19.6309 13.0955 18.3938 14.9975C18.3359 15.0949 18.2978 15.2028 18.2818 15.3149C18.2657 15.4271 18.272 15.5413 18.3002 15.6511C18.3284 15.7608 18.3781 15.8639 18.4463 15.9544C18.5145 16.0449 18.5999 16.121 18.6976 16.1784ZM26.9582 4.1056C28.3684 2.74698 30.5238 2.18519 33.3729 2.43742C39.0137 2.94762 42.1952 2.72405 43.978 2.36863C42.5563 5.49288 39.0251 11.9649 33.4015 13.9427C30.2429 15.0319 26.8149 14.5561 23.1862 12.5095C26.7518 10.0101 31.9627 8.32476 36.2792 7.85469C36.5073 7.83037 36.7164 7.71644 36.8604 7.53798C37.0045 7.35952 37.0717 7.13114 37.0474 6.90309C37.0231 6.67503 36.9092 6.46598 36.7307 6.32192C36.5522 6.17786 36.3239 6.1106 36.0958 6.13492C32.2342 6.59696 28.4782 7.70747 24.9862 9.41968C25.0837 7.06933 25.7314 5.25211 26.9582 4.1056ZM3.6498 31.6219C3.71969 31.6236 3.7894 31.614 3.85617 31.5932C4.04211 31.5524 4.20708 31.4458 4.3208 31.2931C4.43453 31.1404 4.48937 30.9519 4.47528 30.762C4.56127 30.4525 5.42114 28.0677 12.2256 22.3867C14.8225 20.2198 16.1581 17.8637 16.1983 15.3815C16.2384 12.8993 15.0518 10.5834 12.6212 8.30183C13.2288 6.10911 13.2956 3.80177 12.8161 1.57754C12.7948 1.46157 12.75 1.35121 12.6843 1.25332C12.6186 1.15542 12.5335 1.07208 12.4342 1.00847C12.335 0.944861 12.2237 0.902342 12.1073 0.883556C11.9909 0.864769 11.8719 0.870117 11.7577 0.899267C11.6434 0.928416 11.5364 0.980744 11.4433 1.053C11.3501 1.12526 11.2728 1.2159 11.2162 1.31929C11.1595 1.42268 11.1247 1.53662 11.114 1.65402C11.1032 1.77142 11.1167 1.88978 11.1537 2.00175C11.3792 2.95299 11.4604 3.93276 11.3944 4.90815C6.56191 6.05467 3.174 8.50247 1.40265 12.1713C-2.36361 20.0479 2.62368 30.59 2.83578 31.0486C2.91043 31.2029 3.0256 31.334 3.16898 31.4279C3.31235 31.5218 3.47854 31.575 3.6498 31.5818V31.6219ZM2.96763 12.9108C4.41795 9.88975 7.18102 7.8031 11.1766 6.70245C10.4256 10.9904 7.93198 15.8745 5.20904 19.2453C5.13822 19.3333 5.08544 19.4345 5.05374 19.543C5.02203 19.6514 5.01201 19.7651 5.02426 19.8774C5.0365 19.9897 5.07077 20.0986 5.1251 20.1976C5.17943 20.2967 5.25276 20.3841 5.34089 20.4549C5.49415 20.5767 5.68397 20.6433 5.87974 20.644C6.01037 20.6459 6.13969 20.6179 6.25789 20.5623C6.37609 20.5067 6.48006 20.4248 6.56191 20.323C8.96289 17.2651 10.8329 13.8254 12.0938 10.1477C13.7104 11.8675 14.5244 13.5873 14.49 15.307C14.4556 17.2676 13.3435 19.188 11.1365 21.0396C6.79121 24.6683 4.69311 27.076 3.68419 28.5836C2.4689 25.3562 0.393731 18.2765 2.96763 12.9108Z" fill="#9DB29D"/>
</svg>
