<svg width="36" height="36" viewBox="0 0 36 36" fill="none" xmlns="http://www.w3.org/2000/svg">
<circle cx="18" cy="18" r="18" fill="#33643F"/>
<g clip-path="url(#clip0_60_37397)">
<path d="M13.6321 26V15.2048H10.2024V26H13.6321ZM11.9177 13.73C13.1137 13.73 13.8582 12.9011 13.8582 11.8652C13.8359 10.8059 13.1138 10 11.9404 10C10.7672 10 10 10.806 10 11.8652C10 12.9012 10.7443 13.73 11.8953 13.73H11.9176H11.9177ZM15.5305 26H18.9603V19.9715C18.9603 19.6488 18.9826 19.3265 19.0731 19.0959C19.3211 18.4512 19.8854 17.7836 20.8329 17.7836C22.074 17.7836 22.5705 18.7736 22.5705 20.2248V25.9999H26V19.8101C26 16.4942 24.308 14.9514 22.0514 14.9514C20.2011 14.9514 19.3888 16.0333 18.9375 16.7703H18.9604V15.2046H15.5306C15.5756 16.2176 15.5306 25.9998 15.5306 25.9998L15.5305 26Z" fill="#FFF8E6"/>
</g>
<defs>
<clipPath id="clip0_60_37397">
<rect width="16" height="16" fill="white" transform="translate(10 10)"/>
</clipPath>
</defs>
</svg>
