<svg width="36" height="36" viewBox="0 0 36 36" fill="none" xmlns="http://www.w3.org/2000/svg">
<circle cx="18" cy="18" r="18" fill="#33643F"/>
<path d="M14.5067 16.0539C14.5067 15.3533 14.7348 14.7565 15.1909 14.2636C15.6471 13.7706 16.201 13.5241 16.8527 13.5241C17.4066 13.5241 17.8221 13.6668 18.0991 13.9522C18.376 14.2376 18.5145 14.5879 18.5145 15.003C18.5145 15.2625 18.4656 15.5868 18.3679 15.976C18.2375 16.3393 18.0746 16.7804 17.8791 17.2993C17.6836 17.7923 17.537 18.1944 17.4392 18.5058C17.2763 19.0247 17.3985 19.4723 17.8058 19.8485C18.2131 20.2248 18.7426 20.4129 19.3943 20.4129C20.5347 20.4129 21.4715 19.9004 22.2046 18.8755C22.9378 17.8507 23.3043 16.6117 23.3043 15.1587C23.3043 14.043 22.8563 13.1349 21.9602 12.4343C21.0642 11.7338 19.8016 11.3835 18.1724 11.3835C16.3477 11.3835 14.8732 11.8441 13.7491 12.7652C12.625 13.6863 12.0629 14.7955 12.0629 16.0928C12.0629 16.8452 12.3398 17.4939 12.8938 18.0388C13.0893 18.1944 13.1544 18.3761 13.0893 18.5836C13.0241 18.7134 12.9427 18.9728 12.8449 19.362C12.7797 19.4918 12.6901 19.5761 12.5761 19.615C12.462 19.6539 12.3398 19.6604 12.2095 19.6345C11.3623 19.3491 10.7269 18.8691 10.3034 18.1944C9.87976 17.5198 9.66797 16.7414 9.66797 15.8593C9.66797 15.2884 9.78201 14.7176 10.0101 14.1468C10.2382 13.576 10.5966 13.0246 11.0854 12.4927C11.5741 11.9608 12.1606 11.4873 12.8449 11.0721C13.5292 10.657 14.3601 10.3262 15.3376 10.0797C16.3151 9.83321 17.3741 9.70996 18.5145 9.70996C19.6549 9.70996 20.7221 9.86564 21.7159 10.177C22.7097 10.4884 23.5406 10.9035 24.2085 11.4224C24.8765 11.9414 25.3978 12.5446 25.7726 13.2322C26.1473 13.9198 26.3346 14.6268 26.3346 15.3533C26.3346 17.2993 25.7155 18.908 24.4774 20.1793C23.2392 21.4507 21.6426 22.0864 19.6875 22.0864C19.0358 22.0864 18.4249 21.9697 17.8547 21.7361C17.2845 21.5026 16.8853 21.2172 16.6572 20.8799C16.1685 22.3848 15.8752 23.2799 15.7775 23.5654C15.5168 24.3438 14.9303 25.2519 14.0179 26.2897H13.187C12.9915 24.9665 13.0241 23.8767 13.2848 23.0205L14.8977 17.6496C14.637 17.2085 14.5067 16.6766 14.5067 16.0539Z" fill="#FFF8E6"/>
</svg>
