<svg width="36" height="36" viewBox="0 0 36 36" fill="none" xmlns="http://www.w3.org/2000/svg">
<circle cx="18" cy="18" r="18" fill="#33643F"/>
<path d="M15.026 24.9997C21.064 24.9997 24.367 19.9967 24.367 15.6657C24.367 15.5257 24.367 15.3837 24.361 15.2437C25.0041 14.7782 25.5591 14.2019 26 13.5417C25.3993 13.8066 24.7628 13.9811 24.111 14.0597C24.7975 13.6494 25.3117 13.0037 25.558 12.2427C24.913 12.6248 24.207 12.8931 23.471 13.0357C22.9762 12.5087 22.3214 12.1596 21.6081 12.0425C20.8948 11.9253 20.1627 12.0466 19.5253 12.3877C18.888 12.7287 18.3808 13.2703 18.0824 13.9288C17.7841 14.5872 17.7112 15.3256 17.875 16.0297C16.5697 15.9643 15.2928 15.6252 14.127 15.0345C12.9613 14.4437 11.9327 13.6146 11.108 12.6007C10.6893 13.3238 10.5616 14.1791 10.7506 14.993C10.9397 15.8068 11.4315 16.5182 12.126 16.9827C11.6055 16.965 11.0965 16.8253 10.64 16.5747V16.6197C10.6409 17.3772 10.9033 18.1111 11.3829 18.6975C11.8624 19.2838 12.5297 19.6866 13.272 19.8377C12.9903 19.9153 12.6992 19.954 12.407 19.9527C12.201 19.9533 11.9954 19.9343 11.793 19.8957C12.0028 20.5478 12.4113 21.1179 12.9612 21.5262C13.5112 21.9345 14.1751 22.1606 14.86 22.1727C13.6966 23.0865 12.2594 23.5821 10.78 23.5797C10.5193 23.5808 10.2588 23.5658 10 23.5347C11.5015 24.492 13.2453 25.0003 15.026 24.9997Z" fill="#FFF8E6"/>
</svg>
