<svg width="36" height="36" viewBox="0 0 36 36" fill="none" xmlns="http://www.w3.org/2000/svg">
<circle cx="18" cy="18" r="18" fill="#33643F"/>
<path d="M18.051 11.999H18.14C18.962 12.002 23.127 12.032 24.25 12.334C24.5895 12.4262 24.8989 12.6058 25.1472 12.855C25.3955 13.1042 25.574 13.4142 25.665 13.754C25.766 14.134 25.837 14.637 25.885 15.156L25.895 15.26L25.917 15.52L25.925 15.624C25.99 16.538 25.998 17.394 25.999 17.581V17.656C25.998 17.85 25.989 18.764 25.917 19.716L25.909 19.821L25.9 19.925C25.85 20.497 25.776 21.065 25.665 21.483C25.5743 21.823 25.3958 22.1331 25.1475 22.3823C24.8991 22.6316 24.5896 22.8111 24.25 22.903C23.09 23.215 18.681 23.237 18.07 23.238H17.928C17.619 23.238 16.341 23.232 15.001 23.186L14.831 23.18L14.744 23.176L14.573 23.169L14.402 23.162C13.292 23.113 12.235 23.034 11.748 22.902C11.4085 22.8102 11.0991 22.6308 10.8507 22.3818C10.6024 22.1327 10.4238 21.8228 10.333 21.483C10.222 21.066 10.148 20.497 10.098 19.925L10.09 19.82L10.082 19.716C10.0326 19.0384 10.0053 18.3594 10 17.68L10 17.557C10.002 17.342 10.01 16.599 10.064 15.779L10.071 15.676L10.074 15.624L10.082 15.52L10.104 15.26L10.114 15.156C10.162 14.637 10.233 14.133 10.334 13.754C10.4247 13.4141 10.6032 13.1039 10.8515 12.8547C11.0999 12.6055 11.4094 12.4259 11.749 12.334C12.236 12.204 13.293 12.124 14.403 12.074L14.573 12.067L14.745 12.061L14.831 12.058L15.002 12.051C15.9537 12.0204 16.9058 12.0034 17.858 12H18.051V11.999ZM16.4 15.209V20.027L20.557 17.619L16.4 15.209Z" fill="#FFF8E6"/>
</svg>
